<?xml version="1.0" encoding="UTF-8"?>
<svg xmlns="http://www.w3.org/2000/svg" xmlns:xlink="http://www.w3.org/1999/xlink" width="130px" height="130px" viewBox="0 0 130 130" version="1.1">
<g id="surface1">
<path style=" stroke:none;fill-rule:nonzero;fill:rgb(0%,3.921569%,4.313726%);fill-opacity:1;" d="M 59.921875 130.125 C 39.949219 130.125 20.039062 130.125 0.125 130.125 C 0.125 86.792969 0.125 43.460938 0.125 0.125 C 43.460938 0.125 86.792969 0.125 130.125 0.125 C 130.125 43.460938 130.125 86.792969 130.125 130.125 C 106.746094 130.125 83.367188 130.125 59.921875 130.125 M 44.941406 56.113281 C 44.941406 56.113281 44.933594 56.117188 44.964844 56.203125 C 45.085938 56.46875 45.210938 56.734375 45.335938 57.09375 C 45.601562 57.753906 45.871094 58.417969 46.136719 59.082031 C 49.339844 67.042969 52.546875 75 55.738281 82.964844 C 55.878906 83.316406 56.058594 83.429688 56.433594 83.417969 C 57.339844 83.390625 58.25 83.382812 59.160156 83.417969 C 59.6875 83.4375 59.980469 83.21875 60.167969 82.75 C 60.714844 81.40625 61.289062 80.070312 61.832031 78.726562 C 64.8125 71.335938 67.785156 63.941406 70.765625 56.546875 C 70.84375 56.347656 70.988281 56.171875 71.109375 56.085938 C 71.117188 56.222656 71.125 56.355469 71.105469 56.597656 C 71.117188 56.773438 71.128906 56.949219 71.121094 57.246094 C 71.128906 59.027344 71.140625 60.808594 71.121094 62.671875 C 71.128906 62.726562 71.140625 62.78125 71.128906 62.957031 C 71.136719 65.414062 71.144531 67.875 71.121094 70.4375 C 71.132812 70.609375 71.140625 70.785156 71.128906 71.082031 C 71.136719 72.269531 71.144531 73.460938 71.121094 74.742188 C 71.132812 74.835938 71.140625 74.929688 71.128906 75.144531 C 71.136719 75.953125 71.144531 76.761719 71.121094 77.667969 C 71.132812 77.800781 71.140625 77.9375 71.128906 78.191406 C 71.136719 79.804688 71.144531 81.414062 71.121094 83.105469 C 71.15625 83.195312 71.191406 83.285156 71.3125 83.398438 C 72.800781 83.394531 74.289062 83.390625 75.867188 83.363281 C 75.867188 83.246094 75.871094 83.128906 75.878906 82.898438 C 75.875 75.199219 75.875 67.503906 75.90625 59.707031 C 75.894531 59.5625 75.882812 59.417969 75.878906 59.15625 C 75.875 55.226562 75.871094 51.296875 75.902344 47.28125 C 75.863281 47.183594 75.824219 47.085938 75.671875 46.976562 C 75.375 46.980469 75.074219 46.988281 74.691406 46.972656 C 74.632812 46.980469 74.578125 46.988281 74.40625 46.980469 C 74.066406 46.984375 73.722656 46.988281 73.265625 46.972656 C 72.203125 46.976562 71.140625 46.984375 69.988281 46.992188 C 69.929688 47.148438 69.871094 47.304688 69.742188 47.515625 C 65.839844 57.441406 61.941406 67.367188 57.976562 77.457031 C 57.683594 76.761719 57.460938 76.261719 57.261719 75.757812 C 55.585938 71.578125 53.917969 67.398438 52.222656 63.152344 C 52.171875 63.085938 52.121094 63.015625 52.066406 62.960938 C 52.066406 62.960938 52.082031 62.960938 52.066406 62.859375 C 52.042969 62.761719 52.027344 62.652344 51.992188 62.558594 C 50.992188 60.03125 49.988281 57.503906 48.992188 54.882812 C 48.597656 53.894531 48.207031 52.910156 47.789062 51.839844 C 47.21875 50.371094 46.640625 48.90625 46.089844 47.429688 C 45.960938 47.085938 45.785156 46.960938 45.40625 46.96875 C 43.839844 46.996094 42.273438 46.984375 40.710938 46.984375 C 40.488281 46.984375 40.265625 46.984375 40.046875 46.984375 C 40.046875 59.167969 40.046875 71.257812 40.046875 83.367188 C 41.648438 83.367188 43.21875 83.367188 44.832031 83.367188 C 44.832031 74.261719 44.832031 65.191406 44.820312 56.121094 C 44.820312 56.121094 44.824219 56.128906 44.878906 56.117188 C 44.878906 56.117188 44.9375 56.121094 44.941406 56.113281 M 88.917969 83.398438 C 88.976562 83.316406 89.039062 83.234375 89.117188 83.035156 C 89.117188 77.398438 89.121094 71.757812 89.117188 66.121094 C 89.117188 62.191406 89.109375 58.265625 89.125 54.242188 C 89.117188 54.144531 89.109375 54.050781 89.117188 53.835938 C 89.117188 51.558594 89.117188 49.285156 89.117188 47.003906 C 87.464844 47.003906 85.882812 47.003906 84.28125 47.003906 C 84.28125 59.136719 84.28125 71.246094 84.28125 83.375 C 84.6875 83.375 85.0625 83.375 85.554688 83.398438 C 86.652344 83.390625 87.746094 83.382812 88.917969 83.398438 Z M 88.917969 83.398438 "/>
<path style=" stroke:none;fill-rule:nonzero;fill:rgb(49.411765%,89.019608%,91.37255%);fill-opacity:1;" d="M 70.078125 46.988281 C 71.140625 46.984375 72.203125 46.976562 73.339844 47.027344 C 73.804688 47.289062 74.179688 47.367188 74.519531 46.996094 C 74.578125 46.988281 74.632812 46.980469 74.75 47.023438 C 75.082031 47.148438 75.347656 47.21875 75.664062 47.300781 C 75.664062 47.515625 75.664062 47.746094 75.664062 47.976562 C 75.664062 51.210938 75.664062 54.445312 75.664062 57.683594 C 75.664062 65.867188 75.664062 74.054688 75.664062 82.238281 C 75.664062 83.15625 75.664062 83.15625 74.71875 83.15625 C 73.894531 83.15625 73.070312 83.15625 72.242188 83.15625 C 71.347656 83.15625 71.347656 83.15625 71.347656 82.253906 C 71.347656 73.769531 71.347656 65.289062 71.347656 56.808594 C 71.347656 56.597656 71.363281 56.382812 71.332031 56.175781 C 71.320312 56.101562 71.183594 56.046875 71.105469 55.984375 C 70.988281 56.171875 70.84375 56.347656 70.765625 56.546875 C 67.785156 63.941406 64.8125 71.335938 61.832031 78.726562 C 61.289062 80.070312 60.714844 81.40625 60.167969 82.75 C 59.980469 83.21875 59.6875 83.4375 59.160156 83.417969 C 58.25 83.382812 57.339844 83.390625 56.433594 83.417969 C 56.058594 83.429688 55.878906 83.316406 55.738281 82.964844 C 52.546875 75 49.339844 67.042969 46.136719 59.082031 C 45.871094 58.417969 45.601562 57.753906 45.359375 57.011719 C 45.375 56.578125 45.464844 56.175781 44.933594 56.117188 C 44.933594 56.117188 44.941406 56.113281 44.933594 56.09375 C 44.90625 56.050781 44.878906 56.03125 44.855469 56.015625 C 44.84375 56.050781 44.835938 56.089844 44.824219 56.128906 C 44.824219 56.128906 44.820312 56.121094 44.777344 56.136719 C 44.675781 56.429688 44.570312 56.703125 44.570312 56.980469 C 44.558594 65.273438 44.5625 73.566406 44.5625 81.859375 C 44.5625 82.113281 44.550781 82.367188 44.5625 82.621094 C 44.582031 82.988281 44.4375 83.164062 44.050781 83.160156 C 42.992188 83.144531 41.933594 83.148438 40.875 83.15625 C 40.535156 83.160156 40.371094 83.035156 40.371094 82.679688 C 40.359375 81.164062 40.328125 79.652344 40.324219 78.140625 C 40.324219 77.046875 40.378906 75.957031 40.363281 74.863281 C 40.34375 73.183594 40.253906 71.503906 40.25 69.824219 C 40.25 68.175781 40.351562 66.53125 40.367188 64.882812 C 40.386719 62.488281 40.382812 60.089844 40.367188 57.691406 C 40.351562 55.820312 40.273438 53.949219 40.273438 52.078125 C 40.269531 50.582031 40.339844 49.082031 40.378906 47.582031 C 40.382812 47.488281 40.4375 47.390625 40.472656 47.269531 C 40.6875 47.292969 40.871094 47.335938 41.054688 47.332031 C 42.441406 47.300781 43.828125 47.269531 45.214844 47.21875 C 45.578125 47.207031 45.800781 47.308594 45.9375 47.671875 C 46.316406 48.679688 46.714844 49.683594 47.136719 50.675781 C 47.320312 51.109375 47.585938 51.507812 47.816406 51.925781 C 48.207031 52.910156 48.597656 53.894531 48.964844 54.960938 C 48.949219 55.164062 48.929688 55.296875 48.972656 55.402344 C 49.828125 57.597656 50.6875 59.789062 51.558594 61.972656 C 51.695312 62.316406 51.90625 62.632812 52.082031 62.960938 C 52.082031 62.960938 52.066406 62.960938 52.066406 62.988281 C 52.128906 63.085938 52.1875 63.152344 52.246094 63.21875 C 53.917969 67.398438 55.585938 71.578125 57.261719 75.757812 C 57.460938 76.261719 57.683594 76.761719 57.976562 77.457031 C 61.941406 67.367188 65.839844 57.441406 69.804688 47.5 C 69.9375 47.320312 70.007812 47.152344 70.078125 46.988281 Z M 70.078125 46.988281 "/>
<path style=" stroke:none;fill-rule:nonzero;fill:rgb(49.411765%,89.019608%,91.37255%);fill-opacity:1;" d="M 89.101562 53.953125 C 89.109375 54.050781 89.117188 54.144531 89.066406 54.308594 C 88.964844 54.65625 88.875 54.933594 88.875 55.214844 C 88.867188 64.527344 88.867188 73.839844 88.804688 83.152344 C 87.644531 83.15625 86.539062 83.15625 85.378906 83.160156 C 84.425781 83.148438 84.425781 83.148438 84.425781 82.257812 C 84.421875 78.980469 84.421875 75.703125 84.421875 72.425781 C 84.421875 64.289062 84.429688 56.148438 84.410156 48.011719 C 84.410156 47.414062 84.554688 47.15625 85.1875 47.214844 C 85.710938 47.261719 86.242188 47.222656 86.769531 47.222656 C 87.480469 47.222656 88.1875 47.222656 88.992188 47.222656 C 88.992188 49.292969 88.988281 51.253906 88.996094 53.214844 C 88.996094 53.460938 89.066406 53.707031 89.101562 53.953125 Z M 89.101562 53.953125 "/>
<path style=" stroke:none;fill-rule:nonzero;fill:rgb(50.196081%,87.058824%,88.627452%);fill-opacity:1;" d="M 47.800781 51.882812 C 47.585938 51.507812 47.320312 51.109375 47.136719 50.675781 C 46.714844 49.683594 46.316406 48.679688 45.9375 47.671875 C 45.800781 47.308594 45.578125 47.207031 45.214844 47.21875 C 43.828125 47.269531 42.441406 47.300781 41.054688 47.332031 C 40.871094 47.335938 40.6875 47.292969 40.472656 47.269531 C 40.4375 47.390625 40.382812 47.488281 40.378906 47.582031 C 40.339844 49.082031 40.269531 50.582031 40.273438 52.078125 C 40.273438 53.949219 40.351562 55.820312 40.367188 57.691406 C 40.382812 60.089844 40.386719 62.488281 40.367188 64.882812 C 40.351562 66.53125 40.25 68.175781 40.25 69.824219 C 40.253906 71.503906 40.34375 73.183594 40.363281 74.863281 C 40.378906 75.957031 40.324219 77.046875 40.324219 78.140625 C 40.328125 79.652344 40.359375 81.164062 40.371094 82.679688 C 40.371094 83.035156 40.535156 83.160156 40.875 83.15625 C 41.933594 83.148438 42.992188 83.144531 44.050781 83.160156 C 44.4375 83.164062 44.582031 82.988281 44.5625 82.621094 C 44.550781 82.367188 44.5625 82.113281 44.5625 81.859375 C 44.5625 73.566406 44.558594 65.273438 44.570312 56.980469 C 44.570312 56.703125 44.675781 56.429688 44.78125 56.136719 C 44.832031 65.191406 44.832031 74.261719 44.832031 83.367188 C 43.21875 83.367188 41.648438 83.367188 40.046875 83.367188 C 40.046875 71.257812 40.046875 59.167969 40.046875 46.984375 C 40.265625 46.984375 40.488281 46.984375 40.710938 46.984375 C 42.273438 46.984375 43.839844 46.996094 45.40625 46.96875 C 45.785156 46.960938 45.960938 47.085938 46.089844 47.429688 C 46.640625 48.90625 47.21875 50.371094 47.800781 51.882812 Z M 47.800781 51.882812 "/>
<path style=" stroke:none;fill-rule:nonzero;fill:rgb(58.431375%,98.431373%,99.215686%);fill-opacity:1;" d="M 71.105469 56.035156 C 71.183594 56.046875 71.320312 56.101562 71.332031 56.175781 C 71.363281 56.382812 71.347656 56.597656 71.347656 56.808594 C 71.347656 65.289062 71.347656 73.769531 71.347656 82.253906 C 71.347656 83.15625 71.347656 83.15625 72.242188 83.15625 C 73.070312 83.15625 73.894531 83.15625 74.71875 83.15625 C 75.664062 83.15625 75.664062 83.15625 75.664062 82.238281 C 75.664062 74.054688 75.664062 65.867188 75.664062 57.683594 C 75.664062 54.445312 75.664062 51.210938 75.664062 47.976562 C 75.664062 47.746094 75.664062 47.515625 75.664062 47.300781 C 75.347656 47.21875 75.082031 47.148438 74.792969 47.035156 C 75.074219 46.988281 75.375 46.980469 75.730469 47.023438 C 75.816406 47.167969 75.839844 47.269531 75.867188 47.367188 C 75.871094 51.296875 75.875 55.226562 75.851562 59.246094 C 75.839844 59.496094 75.855469 59.652344 75.875 59.808594 C 75.875 67.503906 75.875 75.199219 75.847656 82.984375 C 75.804688 83.175781 75.792969 83.28125 75.777344 83.382812 C 74.289062 83.390625 72.800781 83.394531 71.269531 83.351562 C 71.203125 83.210938 71.175781 83.121094 71.152344 83.027344 C 71.144531 81.414062 71.136719 79.804688 71.164062 78.101562 C 71.179688 77.863281 71.164062 77.714844 71.148438 77.570312 C 71.144531 76.761719 71.136719 75.953125 71.164062 75.058594 C 71.179688 74.863281 71.164062 74.757812 71.148438 74.648438 C 71.144531 73.460938 71.136719 72.269531 71.164062 70.988281 C 71.183594 70.707031 71.167969 70.519531 71.152344 70.332031 C 71.144531 67.875 71.136719 65.414062 71.160156 62.875 C 71.175781 62.726562 71.164062 62.65625 71.148438 62.589844 C 71.140625 60.808594 71.128906 59.027344 71.152344 57.152344 C 71.167969 56.871094 71.148438 56.679688 71.132812 56.492188 C 71.125 56.355469 71.117188 56.222656 71.105469 56.035156 Z M 71.105469 56.035156 "/>
<path style=" stroke:none;fill-rule:nonzero;fill:rgb(58.431375%,98.431373%,99.215686%);fill-opacity:1;" d="M 89.109375 53.894531 C 89.066406 53.707031 88.996094 53.460938 88.996094 53.214844 C 88.988281 51.253906 88.992188 49.292969 88.992188 47.222656 C 88.1875 47.222656 87.480469 47.222656 86.769531 47.222656 C 86.242188 47.222656 85.710938 47.261719 85.1875 47.214844 C 84.554688 47.15625 84.410156 47.414062 84.410156 48.011719 C 84.429688 56.148438 84.421875 64.289062 84.421875 72.425781 C 84.421875 75.703125 84.421875 78.980469 84.425781 82.257812 C 84.425781 83.148438 84.425781 83.148438 85.378906 83.195312 C 85.4375 83.277344 85.4375 83.328125 85.4375 83.375 C 85.0625 83.375 84.6875 83.375 84.28125 83.375 C 84.28125 71.246094 84.28125 59.136719 84.28125 47.003906 C 85.882812 47.003906 87.464844 47.003906 89.117188 47.003906 C 89.117188 49.285156 89.117188 51.558594 89.109375 53.894531 Z M 89.109375 53.894531 "/>
<path style=" stroke:none;fill-rule:nonzero;fill:rgb(54.509807%,94.901961%,96.470588%);fill-opacity:1;" d="M 88.863281 83.152344 C 88.867188 73.839844 88.867188 64.527344 88.875 55.214844 C 88.875 54.933594 88.964844 54.65625 89.058594 54.355469 C 89.109375 58.265625 89.117188 62.191406 89.117188 66.121094 C 89.121094 71.757812 89.117188 77.398438 89.070312 83.09375 C 88.972656 83.15625 88.917969 83.15625 88.867188 83.15625 C 88.867188 83.152344 88.863281 83.152344 88.863281 83.152344 Z M 88.863281 83.152344 "/>
<path style=" stroke:none;fill-rule:nonzero;fill:rgb(54.509807%,94.901961%,96.470588%);fill-opacity:1;" d="M 52.074219 62.910156 C 51.90625 62.632812 51.695312 62.316406 51.558594 61.972656 C 50.6875 59.789062 49.828125 57.597656 48.972656 55.402344 C 48.929688 55.296875 48.949219 55.164062 48.960938 55.011719 C 49.988281 57.503906 50.992188 60.03125 51.992188 62.558594 C 52.027344 62.652344 52.042969 62.761719 52.074219 62.910156 Z M 52.074219 62.910156 "/>
<path style=" stroke:none;fill-rule:nonzero;fill:rgb(54.509807%,94.901961%,96.470588%);fill-opacity:1;" d="M 85.496094 83.386719 C 85.4375 83.328125 85.4375 83.277344 85.4375 83.195312 C 86.539062 83.15625 87.644531 83.15625 88.804688 83.152344 C 88.863281 83.152344 88.867188 83.152344 88.859375 83.210938 C 88.851562 83.300781 88.847656 83.339844 88.84375 83.375 C 87.746094 83.382812 86.652344 83.390625 85.496094 83.386719 Z M 85.496094 83.386719 "/>
<path style=" stroke:none;fill-rule:nonzero;fill:rgb(58.431375%,98.431373%,99.215686%);fill-opacity:1;" d="M 74.460938 46.988281 C 74.179688 47.367188 73.804688 47.289062 73.398438 47.035156 C 73.722656 46.988281 74.066406 46.984375 74.460938 46.988281 Z M 74.460938 46.988281 "/>
<path style=" stroke:none;fill-rule:nonzero;fill:rgb(50.196081%,87.058824%,88.627452%);fill-opacity:1;" d="M 44.949219 56.160156 C 45.464844 56.175781 45.375 56.578125 45.355469 56.964844 C 45.210938 56.734375 45.085938 56.46875 44.949219 56.160156 Z M 44.949219 56.160156 "/>
<path style=" stroke:none;fill-rule:nonzero;fill:rgb(58.431375%,98.431373%,99.215686%);fill-opacity:1;" d="M 70.035156 46.992188 C 70.007812 47.152344 69.9375 47.320312 69.839844 47.472656 C 69.871094 47.304688 69.929688 47.148438 70.035156 46.992188 Z M 70.035156 46.992188 "/>
<path style=" stroke:none;fill-rule:nonzero;fill:rgb(49.411765%,89.019608%,91.37255%);fill-opacity:1;" d="M 71.121094 56.542969 C 71.148438 56.679688 71.167969 56.871094 71.164062 57.09375 C 71.128906 56.949219 71.117188 56.773438 71.121094 56.542969 Z M 71.121094 56.542969 "/>
<path style=" stroke:none;fill-rule:nonzero;fill:rgb(49.411765%,89.019608%,91.37255%);fill-opacity:1;" d="M 71.136719 70.382812 C 71.167969 70.519531 71.183594 70.707031 71.175781 70.929688 C 71.140625 70.785156 71.132812 70.609375 71.136719 70.382812 Z M 71.136719 70.382812 "/>
<path style=" stroke:none;fill-rule:nonzero;fill:rgb(34.901962%,63.529414%,65.490198%);fill-opacity:1;" d="M 75.890625 59.757812 C 75.855469 59.652344 75.839844 59.496094 75.847656 59.304688 C 75.882812 59.417969 75.894531 59.5625 75.890625 59.757812 Z M 75.890625 59.757812 "/>
<path style=" stroke:none;fill-rule:nonzero;fill:rgb(49.411765%,89.019608%,91.37255%);fill-opacity:1;" d="M 71.136719 77.617188 C 71.164062 77.714844 71.179688 77.863281 71.171875 78.039062 C 71.140625 77.9375 71.132812 77.800781 71.136719 77.617188 Z M 71.136719 77.617188 "/>
<path style=" stroke:none;fill-rule:nonzero;fill:rgb(58.431375%,98.431373%,99.215686%);fill-opacity:1;" d="M 88.878906 83.386719 C 88.847656 83.339844 88.851562 83.300781 88.863281 83.210938 C 88.917969 83.15625 88.972656 83.15625 89.0625 83.15625 C 89.039062 83.234375 88.976562 83.316406 88.878906 83.386719 Z M 88.878906 83.386719 "/>
<path style=" stroke:none;fill-rule:nonzero;fill:rgb(54.509807%,94.901961%,96.470588%);fill-opacity:1;" d="M 52.234375 63.1875 C 52.1875 63.152344 52.128906 63.085938 52.066406 62.980469 C 52.121094 63.015625 52.171875 63.085938 52.234375 63.1875 Z M 52.234375 63.1875 "/>
<path style=" stroke:none;fill-rule:nonzero;fill:rgb(49.411765%,89.019608%,91.37255%);fill-opacity:1;" d="M 71.136719 74.695312 C 71.164062 74.757812 71.179688 74.863281 71.171875 75 C 71.140625 74.929688 71.132812 74.835938 71.136719 74.695312 Z M 71.136719 74.695312 "/>
<path style=" stroke:none;fill-rule:nonzero;fill:rgb(49.411765%,89.019608%,91.37255%);fill-opacity:1;" d="M 71.136719 83.066406 C 71.175781 83.121094 71.203125 83.210938 71.226562 83.335938 C 71.191406 83.285156 71.15625 83.195312 71.136719 83.066406 Z M 71.136719 83.066406 "/>
<path style=" stroke:none;fill-rule:nonzero;fill:rgb(34.901962%,63.529414%,65.490198%);fill-opacity:1;" d="M 75.824219 83.375 C 75.792969 83.28125 75.804688 83.175781 75.84375 83.042969 C 75.871094 83.128906 75.867188 83.246094 75.824219 83.375 Z M 75.824219 83.375 "/>
<path style=" stroke:none;fill-rule:nonzero;fill:rgb(34.901962%,63.529414%,65.490198%);fill-opacity:1;" d="M 75.882812 47.324219 C 75.839844 47.269531 75.816406 47.167969 75.785156 47.03125 C 75.824219 47.085938 75.863281 47.183594 75.882812 47.324219 Z M 75.882812 47.324219 "/>
<path style=" stroke:none;fill-rule:nonzero;fill:rgb(50.196081%,87.058824%,88.627452%);fill-opacity:1;" d="M 44.851562 56.125 C 44.835938 56.089844 44.84375 56.050781 44.855469 56.015625 C 44.878906 56.03125 44.90625 56.050781 44.933594 56.097656 C 44.9375 56.121094 44.878906 56.117188 44.851562 56.125 Z M 44.851562 56.125 "/>
<path style=" stroke:none;fill-rule:nonzero;fill:rgb(49.411765%,89.019608%,91.37255%);fill-opacity:1;" d="M 71.132812 62.628906 C 71.164062 62.65625 71.175781 62.726562 71.167969 62.816406 C 71.140625 62.78125 71.128906 62.726562 71.132812 62.628906 Z M 71.132812 62.628906 "/>
</g>
</svg>
