<?xml version="1.0" encoding="UTF-8"?>
<svg xmlns="http://www.w3.org/2000/svg" xmlns:xlink="http://www.w3.org/1999/xlink" width="150px" height="150px" viewBox="0 0 150 150" version="1.1">
<g id="surface1">
<path style=" stroke:none;fill-rule:nonzero;fill:rgb(0%,3.921569%,4.313726%);fill-opacity:1;" d="M 69.140625 150.148438 C 46.09375 150.148438 23.121094 150.148438 0.148438 150.148438 C 0.148438 100.148438 0.148438 50.148438 0.148438 0.148438 C 50.148438 0.148438 100.148438 0.148438 150.148438 0.148438 C 150.148438 50.148438 150.148438 100.148438 150.148438 150.148438 C 123.167969 150.148438 96.191406 150.148438 69.140625 150.148438 M 51.855469 64.746094 C 51.855469 64.746094 51.84375 64.753906 51.882812 64.847656 C 52.023438 65.15625 52.164062 65.460938 52.308594 65.875 C 52.617188 66.640625 52.925781 67.40625 53.234375 68.171875 C 56.929688 77.355469 60.628906 86.539062 64.3125 95.726562 C 64.476562 96.132812 64.683594 96.265625 65.113281 96.253906 C 66.164062 96.21875 67.214844 96.210938 68.261719 96.25 C 68.871094 96.273438 69.207031 96.023438 69.425781 95.480469 C 70.054688 93.929688 70.71875 92.390625 71.34375 90.835938 C 74.78125 82.308594 78.210938 73.777344 81.652344 65.25 C 81.746094 65.015625 81.910156 64.8125 82.050781 64.714844 C 82.058594 64.871094 82.066406 65.027344 82.046875 65.304688 C 82.058594 65.507812 82.070312 65.710938 82.0625 66.050781 C 82.070312 68.105469 82.082031 70.160156 82.0625 72.3125 C 82.074219 72.375 82.082031 72.441406 82.070312 72.640625 C 82.078125 75.480469 82.089844 78.316406 82.0625 81.273438 C 82.074219 81.472656 82.085938 81.675781 82.074219 82.015625 C 82.082031 83.386719 82.089844 84.761719 82.0625 86.238281 C 82.074219 86.347656 82.085938 86.457031 82.070312 86.703125 C 82.078125 87.636719 82.085938 88.570312 82.0625 89.617188 C 82.074219 89.773438 82.085938 89.925781 82.070312 90.21875 C 82.082031 92.082031 82.089844 93.941406 82.0625 95.894531 C 82.101562 95.996094 82.140625 96.097656 82.28125 96.230469 C 84 96.222656 85.71875 96.21875 87.539062 96.1875 C 87.539062 96.054688 87.542969 95.917969 87.550781 95.648438 C 87.550781 86.769531 87.546875 77.890625 87.585938 68.890625 C 87.574219 68.726562 87.558594 68.558594 87.554688 68.257812 C 87.546875 63.722656 87.542969 59.191406 87.582031 54.558594 C 87.535156 54.445312 87.488281 54.332031 87.3125 54.203125 C 86.96875 54.210938 86.625 54.21875 86.183594 54.199219 C 86.117188 54.207031 86.050781 54.214844 85.851562 54.207031 C 85.460938 54.210938 85.066406 54.21875 84.535156 54.199219 C 83.308594 54.203125 82.085938 54.210938 80.757812 54.222656 C 80.691406 54.402344 80.621094 54.582031 80.46875 54.828125 C 75.96875 66.277344 71.472656 77.730469 66.894531 89.375 C 66.558594 88.570312 66.304688 87.996094 66.070312 87.410156 C 64.140625 82.589844 62.214844 77.765625 60.257812 72.871094 C 60.199219 72.789062 60.136719 72.710938 60.074219 72.644531 C 60.074219 72.644531 60.09375 72.644531 60.074219 72.53125 C 60.046875 72.414062 60.035156 72.292969 59.988281 72.183594 C 58.835938 69.265625 57.679688 66.351562 56.527344 63.324219 C 56.074219 62.1875 55.625 61.050781 55.140625 59.816406 C 54.484375 58.121094 53.816406 56.429688 53.179688 54.726562 C 53.03125 54.328125 52.828125 54.1875 52.390625 54.195312 C 50.585938 54.226562 48.777344 54.210938 46.972656 54.214844 C 46.71875 54.214844 46.460938 54.214844 46.207031 54.214844 C 46.207031 68.269531 46.207031 82.21875 46.207031 96.195312 C 48.054688 96.195312 49.867188 96.195312 51.726562 96.195312 C 51.726562 85.6875 51.726562 75.222656 51.714844 64.753906 C 51.714844 64.753906 51.722656 64.765625 51.785156 64.75 C 51.785156 64.75 51.847656 64.757812 51.855469 64.746094 M 102.597656 96.226562 C 102.667969 96.136719 102.738281 96.042969 102.828125 95.8125 C 102.828125 89.304688 102.832031 82.800781 102.828125 76.292969 C 102.828125 71.761719 102.816406 67.230469 102.835938 62.585938 C 102.828125 62.476562 102.820312 62.363281 102.828125 62.117188 C 102.828125 59.492188 102.828125 56.867188 102.828125 54.234375 C 100.921875 54.234375 99.097656 54.234375 97.25 54.234375 C 97.25 68.234375 97.25 82.207031 97.25 96.203125 C 97.714844 96.203125 98.148438 96.203125 98.71875 96.226562 C 99.980469 96.21875 101.246094 96.210938 102.597656 96.226562 Z M 102.597656 96.226562 "/>
<path style=" stroke:none;fill-rule:nonzero;fill:rgb(49.411765%,89.019608%,91.37255%);fill-opacity:1;" d="M 80.859375 54.21875 C 82.085938 54.210938 83.308594 54.203125 84.625 54.261719 C 85.15625 54.566406 85.589844 54.652344 85.984375 54.222656 C 86.050781 54.214844 86.117188 54.207031 86.253906 54.257812 C 86.632812 54.402344 86.941406 54.480469 87.304688 54.578125 C 87.304688 54.824219 87.304688 55.089844 87.304688 55.355469 C 87.304688 59.089844 87.304688 62.824219 87.304688 66.558594 C 87.304688 76 87.304688 85.445312 87.304688 94.890625 C 87.304688 95.949219 87.304688 95.949219 86.214844 95.949219 C 85.261719 95.949219 84.308594 95.949219 83.359375 95.949219 C 82.324219 95.949219 82.324219 95.949219 82.324219 94.90625 C 82.324219 85.121094 82.324219 75.335938 82.324219 65.546875 C 82.324219 65.304688 82.34375 65.058594 82.304688 64.820312 C 82.292969 64.734375 82.132812 64.667969 82.042969 64.597656 C 81.910156 64.8125 81.746094 65.015625 81.652344 65.25 C 78.210938 73.777344 74.78125 82.308594 71.34375 90.835938 C 70.71875 92.390625 70.054688 93.929688 69.425781 95.480469 C 69.207031 96.023438 68.871094 96.273438 68.261719 96.25 C 67.214844 96.210938 66.164062 96.21875 65.113281 96.253906 C 64.683594 96.265625 64.476562 96.132812 64.3125 95.726562 C 60.628906 86.539062 56.929688 77.355469 53.234375 68.171875 C 52.925781 67.40625 52.617188 66.640625 52.335938 65.78125 C 52.359375 65.28125 52.460938 64.820312 51.84375 64.753906 C 51.84375 64.753906 51.855469 64.746094 51.847656 64.722656 C 51.8125 64.675781 51.785156 64.652344 51.757812 64.632812 C 51.746094 64.675781 51.734375 64.71875 51.722656 64.765625 C 51.722656 64.765625 51.714844 64.753906 51.667969 64.773438 C 51.550781 65.109375 51.425781 65.425781 51.425781 65.746094 C 51.414062 75.3125 51.417969 84.882812 51.417969 94.453125 C 51.417969 94.746094 51.402344 95.039062 51.417969 95.332031 C 51.441406 95.757812 51.277344 95.957031 50.828125 95.953125 C 49.605469 95.9375 48.386719 95.941406 47.164062 95.949219 C 46.773438 95.953125 46.582031 95.8125 46.578125 95.398438 C 46.570312 93.652344 46.53125 91.90625 46.53125 90.164062 C 46.527344 88.902344 46.589844 87.640625 46.574219 86.382812 C 46.550781 84.441406 46.445312 82.503906 46.445312 80.566406 C 46.445312 78.664062 46.558594 76.765625 46.574219 74.867188 C 46.601562 72.101562 46.597656 69.332031 46.578125 66.566406 C 46.5625 64.410156 46.472656 62.25 46.46875 60.089844 C 46.464844 58.363281 46.542969 56.632812 46.59375 54.902344 C 46.597656 54.792969 46.65625 54.683594 46.699219 54.542969 C 46.945312 54.570312 47.160156 54.617188 47.371094 54.613281 C 48.972656 54.578125 50.570312 54.542969 52.171875 54.484375 C 52.589844 54.46875 52.847656 54.589844 53.003906 55.007812 C 53.445312 56.171875 53.902344 57.328125 54.386719 58.46875 C 54.601562 58.972656 54.90625 59.433594 55.171875 59.914062 C 55.625 61.050781 56.074219 62.1875 56.496094 63.417969 C 56.476562 63.652344 56.460938 63.800781 56.507812 63.925781 C 57.496094 66.457031 58.484375 68.988281 59.488281 71.507812 C 59.648438 71.90625 59.890625 72.269531 60.09375 72.644531 C 60.09375 72.644531 60.074219 72.644531 60.078125 72.679688 C 60.148438 72.789062 60.21875 72.867188 60.285156 72.945312 C 62.214844 77.765625 64.140625 82.589844 66.070312 87.410156 C 66.304688 87.996094 66.558594 88.570312 66.894531 89.375 C 71.472656 77.730469 75.96875 66.277344 80.542969 54.808594 C 80.699219 54.597656 80.777344 54.40625 80.859375 54.21875 Z M 80.859375 54.21875 "/>
<path style=" stroke:none;fill-rule:nonzero;fill:rgb(49.411765%,89.019608%,91.37255%);fill-opacity:1;" d="M 102.8125 62.253906 C 102.820312 62.363281 102.828125 62.476562 102.769531 62.664062 C 102.652344 63.0625 102.546875 63.386719 102.546875 63.710938 C 102.535156 74.453125 102.539062 85.199219 102.46875 95.945312 C 101.125 95.949219 99.851562 95.949219 98.515625 95.953125 C 97.414062 95.941406 97.414062 95.941406 97.414062 94.914062 C 97.410156 91.132812 97.410156 87.351562 97.410156 83.570312 C 97.410156 74.179688 97.417969 64.785156 97.398438 55.394531 C 97.398438 54.710938 97.566406 54.410156 98.292969 54.476562 C 98.894531 54.53125 99.511719 54.488281 100.121094 54.488281 C 100.9375 54.488281 101.753906 54.488281 102.679688 54.488281 C 102.679688 56.878906 102.675781 59.140625 102.6875 61.402344 C 102.6875 61.6875 102.765625 61.96875 102.8125 62.253906 Z M 102.8125 62.253906 "/>
<path style=" stroke:none;fill-rule:nonzero;fill:rgb(50.196081%,87.058824%,88.627452%);fill-opacity:1;" d="M 55.15625 59.863281 C 54.90625 59.433594 54.601562 58.972656 54.386719 58.46875 C 53.902344 57.328125 53.445312 56.171875 53.003906 55.007812 C 52.847656 54.589844 52.589844 54.46875 52.171875 54.484375 C 50.570312 54.542969 48.972656 54.578125 47.371094 54.613281 C 47.160156 54.617188 46.945312 54.570312 46.699219 54.542969 C 46.65625 54.683594 46.597656 54.792969 46.59375 54.902344 C 46.542969 56.632812 46.464844 58.363281 46.46875 60.089844 C 46.472656 62.25 46.5625 64.410156 46.578125 66.566406 C 46.597656 69.332031 46.601562 72.101562 46.574219 74.867188 C 46.558594 76.765625 46.445312 78.664062 46.445312 80.566406 C 46.445312 82.503906 46.550781 84.441406 46.574219 86.382812 C 46.589844 87.640625 46.527344 88.902344 46.53125 90.164062 C 46.53125 91.90625 46.570312 93.652344 46.578125 95.398438 C 46.582031 95.8125 46.773438 95.953125 47.164062 95.949219 C 48.386719 95.941406 49.605469 95.9375 50.828125 95.953125 C 51.277344 95.957031 51.441406 95.757812 51.417969 95.332031 C 51.402344 95.039062 51.417969 94.746094 51.417969 94.453125 C 51.417969 84.882812 51.414062 75.3125 51.425781 65.746094 C 51.425781 65.425781 51.550781 65.109375 51.671875 64.773438 C 51.726562 75.222656 51.726562 85.6875 51.726562 96.195312 C 49.867188 96.195312 48.054688 96.195312 46.207031 96.195312 C 46.207031 82.21875 46.207031 68.269531 46.207031 54.214844 C 46.460938 54.214844 46.71875 54.214844 46.972656 54.214844 C 48.777344 54.210938 50.585938 54.226562 52.390625 54.195312 C 52.828125 54.1875 53.03125 54.328125 53.179688 54.726562 C 53.816406 56.429688 54.484375 58.121094 55.15625 59.863281 Z M 55.15625 59.863281 "/>
<path style=" stroke:none;fill-rule:nonzero;fill:rgb(58.431375%,98.431373%,99.215686%);fill-opacity:1;" d="M 82.046875 64.65625 C 82.132812 64.667969 82.292969 64.734375 82.304688 64.820312 C 82.34375 65.058594 82.324219 65.304688 82.324219 65.546875 C 82.324219 75.335938 82.324219 85.121094 82.324219 94.90625 C 82.324219 95.949219 82.324219 95.949219 83.359375 95.949219 C 84.308594 95.949219 85.261719 95.949219 86.214844 95.949219 C 87.304688 95.949219 87.304688 95.949219 87.304688 94.890625 C 87.304688 85.445312 87.304688 76 87.304688 66.558594 C 87.304688 62.824219 87.304688 59.089844 87.304688 55.355469 C 87.304688 55.089844 87.304688 54.824219 87.304688 54.578125 C 86.941406 54.480469 86.632812 54.402344 86.300781 54.273438 C 86.625 54.21875 86.96875 54.210938 87.382812 54.257812 C 87.480469 54.425781 87.507812 54.542969 87.539062 54.65625 C 87.542969 59.191406 87.546875 63.722656 87.519531 68.363281 C 87.507812 68.648438 87.527344 68.828125 87.546875 69.011719 C 87.546875 77.890625 87.550781 86.769531 87.519531 95.75 C 87.46875 95.972656 87.453125 96.09375 87.4375 96.210938 C 85.71875 96.21875 84 96.222656 82.234375 96.171875 C 82.15625 96.011719 82.128906 95.90625 82.097656 95.800781 C 82.089844 93.941406 82.082031 92.082031 82.109375 90.117188 C 82.132812 89.84375 82.113281 89.671875 82.09375 89.503906 C 82.085938 88.570312 82.078125 87.636719 82.109375 86.605469 C 82.132812 86.382812 82.113281 86.257812 82.097656 86.132812 C 82.089844 84.761719 82.082031 83.386719 82.113281 81.910156 C 82.132812 81.585938 82.113281 81.371094 82.097656 81.152344 C 82.089844 78.316406 82.078125 75.480469 82.105469 72.550781 C 82.125 72.378906 82.109375 72.296875 82.09375 72.21875 C 82.082031 70.160156 82.070312 68.105469 82.101562 65.945312 C 82.117188 65.617188 82.097656 65.402344 82.074219 65.183594 C 82.066406 65.027344 82.058594 64.871094 82.046875 64.65625 Z M 82.046875 64.65625 "/>
<path style=" stroke:none;fill-rule:nonzero;fill:rgb(58.431375%,98.431373%,99.215686%);fill-opacity:1;" d="M 102.820312 62.183594 C 102.765625 61.96875 102.6875 61.6875 102.6875 61.402344 C 102.675781 59.140625 102.679688 56.878906 102.679688 54.488281 C 101.753906 54.488281 100.9375 54.488281 100.121094 54.488281 C 99.511719 54.488281 98.894531 54.53125 98.292969 54.476562 C 97.566406 54.410156 97.398438 54.710938 97.398438 55.394531 C 97.417969 64.785156 97.410156 74.179688 97.410156 83.570312 C 97.410156 87.351562 97.410156 91.132812 97.414062 94.914062 C 97.414062 95.941406 97.414062 95.941406 98.515625 95.992188 C 98.582031 96.089844 98.582031 96.144531 98.582031 96.203125 C 98.148438 96.203125 97.714844 96.203125 97.25 96.203125 C 97.25 82.207031 97.25 68.234375 97.25 54.234375 C 99.097656 54.234375 100.921875 54.234375 102.828125 54.234375 C 102.828125 56.867188 102.828125 59.492188 102.820312 62.183594 Z M 102.820312 62.183594 "/>
<path style=" stroke:none;fill-rule:nonzero;fill:rgb(54.509807%,94.901961%,96.470588%);fill-opacity:1;" d="M 102.535156 95.945312 C 102.539062 85.199219 102.535156 74.453125 102.546875 63.710938 C 102.546875 63.386719 102.652344 63.0625 102.761719 62.71875 C 102.816406 67.230469 102.828125 71.761719 102.828125 76.292969 C 102.832031 82.800781 102.828125 89.304688 102.773438 95.878906 C 102.660156 95.949219 102.597656 95.949219 102.539062 95.949219 C 102.539062 95.945312 102.535156 95.945312 102.535156 95.945312 Z M 102.535156 95.945312 "/>
<path style=" stroke:none;fill-rule:nonzero;fill:rgb(54.509807%,94.901961%,96.470588%);fill-opacity:1;" d="M 60.085938 72.589844 C 59.890625 72.269531 59.648438 71.90625 59.488281 71.507812 C 58.484375 68.988281 57.496094 66.457031 56.507812 63.925781 C 56.460938 63.800781 56.476562 63.652344 56.496094 63.472656 C 57.679688 66.351562 58.835938 69.265625 59.988281 72.183594 C 60.035156 72.292969 60.046875 72.414062 60.085938 72.589844 Z M 60.085938 72.589844 "/>
<path style=" stroke:none;fill-rule:nonzero;fill:rgb(54.509807%,94.901961%,96.470588%);fill-opacity:1;" d="M 98.648438 96.214844 C 98.582031 96.144531 98.582031 96.089844 98.582031 95.996094 C 99.851562 95.949219 101.125 95.949219 102.46875 95.945312 C 102.535156 95.945312 102.539062 95.945312 102.53125 96.011719 C 102.519531 96.117188 102.515625 96.160156 102.511719 96.203125 C 101.246094 96.210938 99.980469 96.21875 98.648438 96.214844 Z M 98.648438 96.214844 "/>
<path style=" stroke:none;fill-rule:nonzero;fill:rgb(58.431375%,98.431373%,99.215686%);fill-opacity:1;" d="M 85.917969 54.214844 C 85.589844 54.652344 85.15625 54.566406 84.691406 54.273438 C 85.066406 54.21875 85.460938 54.210938 85.917969 54.214844 Z M 85.917969 54.214844 "/>
<path style=" stroke:none;fill-rule:nonzero;fill:rgb(50.196081%,87.058824%,88.627452%);fill-opacity:1;" d="M 51.863281 64.800781 C 52.460938 64.820312 52.359375 65.28125 52.335938 65.726562 C 52.164062 65.460938 52.023438 65.15625 51.863281 64.800781 Z M 51.863281 64.800781 "/>
<path style=" stroke:none;fill-rule:nonzero;fill:rgb(58.431375%,98.431373%,99.215686%);fill-opacity:1;" d="M 80.808594 54.21875 C 80.777344 54.40625 80.699219 54.597656 80.585938 54.777344 C 80.621094 54.582031 80.691406 54.402344 80.808594 54.21875 Z M 80.808594 54.21875 "/>
<path style=" stroke:none;fill-rule:nonzero;fill:rgb(49.411765%,89.019608%,91.37255%);fill-opacity:1;" d="M 82.0625 65.242188 C 82.097656 65.402344 82.117188 65.617188 82.109375 65.875 C 82.070312 65.710938 82.058594 65.507812 82.0625 65.242188 Z M 82.0625 65.242188 "/>
<path style=" stroke:none;fill-rule:nonzero;fill:rgb(49.411765%,89.019608%,91.37255%);fill-opacity:1;" d="M 82.082031 81.210938 C 82.113281 81.371094 82.132812 81.585938 82.125 81.839844 C 82.085938 81.675781 82.074219 81.472656 82.082031 81.210938 Z M 82.082031 81.210938 "/>
<path style=" stroke:none;fill-rule:nonzero;fill:rgb(34.901962%,63.529414%,65.490198%);fill-opacity:1;" d="M 87.566406 68.949219 C 87.527344 68.828125 87.507812 68.648438 87.515625 68.429688 C 87.558594 68.558594 87.574219 68.726562 87.566406 68.949219 Z M 87.566406 68.949219 "/>
<path style=" stroke:none;fill-rule:nonzero;fill:rgb(49.411765%,89.019608%,91.37255%);fill-opacity:1;" d="M 82.078125 89.558594 C 82.113281 89.671875 82.132812 89.84375 82.121094 90.046875 C 82.085938 89.925781 82.074219 89.773438 82.078125 89.558594 Z M 82.078125 89.558594 "/>
<path style=" stroke:none;fill-rule:nonzero;fill:rgb(58.431375%,98.431373%,99.215686%);fill-opacity:1;" d="M 102.554688 96.214844 C 102.515625 96.160156 102.519531 96.117188 102.53125 96.011719 C 102.597656 95.949219 102.660156 95.949219 102.761719 95.949219 C 102.738281 96.042969 102.667969 96.136719 102.554688 96.214844 Z M 102.554688 96.214844 "/>
<path style=" stroke:none;fill-rule:nonzero;fill:rgb(54.509807%,94.901961%,96.470588%);fill-opacity:1;" d="M 60.273438 72.90625 C 60.21875 72.867188 60.148438 72.789062 60.078125 72.671875 C 60.136719 72.710938 60.199219 72.789062 60.273438 72.90625 Z M 60.273438 72.90625 "/>
<path style=" stroke:none;fill-rule:nonzero;fill:rgb(49.411765%,89.019608%,91.37255%);fill-opacity:1;" d="M 82.078125 86.1875 C 82.113281 86.257812 82.132812 86.382812 82.121094 86.539062 C 82.085938 86.457031 82.074219 86.347656 82.078125 86.1875 Z M 82.078125 86.1875 "/>
<path style=" stroke:none;fill-rule:nonzero;fill:rgb(49.411765%,89.019608%,91.37255%);fill-opacity:1;" d="M 82.078125 95.847656 C 82.128906 95.90625 82.15625 96.011719 82.183594 96.15625 C 82.140625 96.097656 82.101562 95.996094 82.078125 95.847656 Z M 82.078125 95.847656 "/>
<path style=" stroke:none;fill-rule:nonzero;fill:rgb(34.901962%,63.529414%,65.490198%);fill-opacity:1;" d="M 87.488281 96.199219 C 87.453125 96.09375 87.46875 95.972656 87.515625 95.820312 C 87.542969 95.917969 87.539062 96.054688 87.488281 96.199219 Z M 87.488281 96.199219 "/>
<path style=" stroke:none;fill-rule:nonzero;fill:rgb(34.901962%,63.529414%,65.490198%);fill-opacity:1;" d="M 87.558594 54.605469 C 87.507812 54.542969 87.480469 54.425781 87.445312 54.265625 C 87.488281 54.332031 87.535156 54.445312 87.558594 54.605469 Z M 87.558594 54.605469 "/>
<path style=" stroke:none;fill-rule:nonzero;fill:rgb(50.196081%,87.058824%,88.627452%);fill-opacity:1;" d="M 51.753906 64.757812 C 51.734375 64.71875 51.746094 64.675781 51.757812 64.632812 C 51.785156 64.652344 51.8125 64.675781 51.847656 64.726562 C 51.847656 64.757812 51.785156 64.75 51.753906 64.757812 Z M 51.753906 64.757812 "/>
<path style=" stroke:none;fill-rule:nonzero;fill:rgb(49.411765%,89.019608%,91.37255%);fill-opacity:1;" d="M 82.078125 72.265625 C 82.109375 72.296875 82.125 72.378906 82.117188 72.480469 C 82.082031 72.441406 82.074219 72.375 82.078125 72.265625 Z M 82.078125 72.265625 "/>
</g>
</svg>
